<?xml version="1.0" encoding="utf-8"?>
<!-- Generator: Adobe Illustrator 24.2.3, SVG Export Plug-In . SVG Version: 6.00 Build 0)  -->
<svg version="1.1" id="Layer_1" xmlns="http://www.w3.org/2000/svg" xmlns:xlink="http://www.w3.org/1999/xlink" x="0px" y="0px"
	 viewBox="0 0 64 64" style="enable-background:new 0 0 64 64;" xml:space="preserve">
<style type="text/css">
	.st0{fill:#F2BD1D;}
	.st1{fill:#9134D8;}
</style>
<g>
	<path class="st0" d="M7.5,29.3h6v19h-6V29.3z"/>
	<path class="st1" d="M55.9,37.1c-0.9-0.7-2.2-0.9-3.4-0.5l-15.3,4.2c0.2-0.5,0.3-1,0.3-1.5c0-2.2-1.8-4-4-4h-9.4
		c-0.7-1-2.4-4-4.6-4h-4v-1c0-1.7-1.3-3-3-3h-4c-1.7,0-3,1.3-3,3v17c0,1.7,1.3,3,3,3h4c1.7,0,3-1.3,3-3v-0.8l12.1,8.2
		c1.5,1,3.3,1.5,5.1,1.5c1.6,0,3.3-0.4,4.7-1.3l18.2-11.1c1.2-0.7,1.9-2,1.9-3.3v-0.3C57.5,39,56.9,37.8,55.9,37.1z M13.5,47.3
		c0,0.6-0.4,1-1,1h-1v-4h-2v4h-1c-0.6,0-1-0.4-1-1v-17c0-0.6,0.4-1,1-1h4c0.6,0,1,0.4,1,1V47.3z M55.5,40.5c0,0.7-0.3,1.3-0.9,1.6
		L36.4,53.2c-2.4,1.4-5.4,1.4-7.7-0.2l-13.3-9V33.3h4c1.1,0,2.5,2,3.1,3.4l0.3,0.6h10.6c1.1,0,2,0.9,2,2c0,1.1-0.9,2-2,2h-10v2h10h2
		L53,38.5c0.6-0.2,1.3-0.1,1.7,0.2c0.5,0.4,0.8,0.9,0.8,1.5V40.5z"/>
	<path class="st1" d="M38.5,30.3c2.6,0,13-6.6,13-15c0-3.9-3.1-7-7-7c-2.5,0-4.8,1.4-6,3.4c-1.2-2-3.5-3.4-6-3.4c-3.9,0-7,3.1-7,7
		C25.5,23.7,35.9,30.3,38.5,30.3z M32.5,10.3c2.8,0,5,2,5,5h2c0-3,2.2-5,5-5s5,2.2,5,5c0,7.6-9.7,13-11,13s-11-5.4-11-13
		C27.5,12.5,29.7,10.3,32.5,10.3z"/>
</g>
</svg>
