<?xml version="1.0" encoding="utf-8"?>
<!-- Generator: Adobe Illustrator 24.2.3, SVG Export Plug-In . SVG Version: 6.00 Build 0)  -->
<svg version="1.1" id="Layer_1" xmlns="http://www.w3.org/2000/svg" xmlns:xlink="http://www.w3.org/1999/xlink" x="0px" y="0px"
	 viewBox="0 0 64 64" style="enable-background:new 0 0 64 64;" xml:space="preserve">
<style type="text/css">
	.st0{fill:#9134D8;}
	.st1{fill:#F2BD1D;}
</style>
<g>
	<path class="st0" d="M38.4,28.4L38.4,28.4c0.4-0.4,0.4-1,0-1.4l-2-2c-1-1-1.3-2.7-0.5-3.9c1.1-1.6,3.3-1.8,4.6-0.5l3.5,3.5
		c1,1,2.3,1.5,3.5,1.5c1.3,0,2.6-0.5,3.5-1.5c1.8-1.8,1.9-4.8,0.3-6.7l-2.8-2.9c-1.3-1.3-1.1-3.5,0.5-4.6c1.2-0.8,2.8-0.6,3.9,0.5
		l2,2c0.4,0.4,1,0.4,1.4,0v0c0.4-0.4,0.4-1,0-1.4l-2-2c-1.8-1.8-4.7-2.1-6.7-0.6c-2.3,1.8-2.5,5-0.7,7.2l2.8,2.9
		c1.3,1.3,1.2,3.5-0.5,4.6c-1.2,0.8-2.8,0.6-3.9-0.5l-3-3c-2.2-2.2-5.5-2.4-7.5-0.6c-1.1,1.1-1.7,2.6-1.5,4.2
		c0.1,1.2,0.7,2.3,1.6,3.1l2,2C37.3,28.8,38,28.8,38.4,28.4z"/>
	<path class="st0" d="M35,37.9l-0.2,0.2c-1.3-1.6-2.7-3.2-4.2-4.8c-1.6-1.6-3.2-3-4.9-4.3l0.2-0.2c2.5-2.5,4.2-5.8,4.6-9.4
		c0.4-4.2-0.9-8.2-3.6-11.3c-0.4-0.4-1.1-0.5-1.5-0.1l0,0c-0.4,0.4-0.4,1-0.1,1.3c2.3,2.7,3.5,6.2,3.1,9.8c-0.3,3.1-1.8,5.9-4,8.1
		L24,27.8c-3.6-2.5-6.8-3.7-8.3-2.2c-0.2,0.2-0.3,0.4-0.4,0.7c0,0-0.1,0.1-0.1,0.1L6.5,53.7c-0.3,0.8-0.2,1.7,0.2,2.5
		c0.6,1,1.6,1.5,2.6,1.5c0.3,0,0.6,0,0.9-0.1l27-8.8c0.4-0.1,0.7-0.3,1-0.5c1.5-1.5,0.2-4.9-2.3-8.5l0.2-0.2c2.3-2.3,5.3-3.8,8.5-4
		c3.5-0.2,6.8,0.9,9.4,3.1c0.4,0.3,1,0.3,1.3-0.1l0,0c0.4-0.4,0.4-1.1-0.1-1.5C49.4,32.1,40.5,32.3,35,37.9z M9.7,55.6
		c-0.4,0.1-0.7,0-1-0.2c-0.3-0.3-0.4-0.6-0.2-1l7.5-23.8c1.4,3,4.3,6.7,7.5,9.8c2.9,2.9,5.9,5.3,8.5,6.8c0.5,0.3,0.9,0.5,1.3,0.7
		l-4,1.3l-3.4-3.4l-1.4,1.4l2.7,2.7L25,50.7l-3.4-3.4l-1.4,1.4l2.7,2.7L20.7,52l-3.4-3.4l-1.4,1.4l2.6,2.6l-2.1,0.7l-3.3-3.3
		l-1.4,1.4l2.6,2.6L9.7,55.6z M36.9,46.8c-0.6,0.6-5.5-1.2-12-7.8c-6.5-6.5-8.4-11.4-7.8-12c0.1-0.1,0.2-0.1,0.4-0.1
		c0.8,0,2.6,0.7,5.1,2.4l-0.9,0.9c-0.4,0.4-0.4,1,0,1.4l0,0c0.4,0.4,1,0.4,1.4,0l1.1-1.1c1.5,1.1,3.1,2.6,4.9,4.3
		c1.7,1.7,3.1,3.3,4.2,4.8L32,40.9c-0.4,0.4-0.4,1,0,1.4h0c0.4,0.4,1,0.4,1.4,0l1.1-1.1C36.6,44.3,37.3,46.4,36.9,46.8z"/>
	<circle class="st1" cx="37.9" cy="9.1" r="1.5"/>
	<circle class="st1" cx="19.9" cy="17.1" r="1.5"/>
	<circle class="st1" cx="54.9" cy="29.1" r="1.5"/>
	<circle class="st1" cx="44.9" cy="40.1" r="1.5"/>
</g>
</svg>
