<?xml version="1.0" encoding="utf-8"?>
<!-- Generator: Adobe Illustrator 24.2.3, SVG Export Plug-In . SVG Version: 6.00 Build 0)  -->
<svg version="1.1" id="Layer_1" xmlns="http://www.w3.org/2000/svg" xmlns:xlink="http://www.w3.org/1999/xlink" x="0px" y="0px"
	 viewBox="0 0 64 64" style="enable-background:new 0 0 64 64;" xml:space="preserve">
<style type="text/css">
	.st0{fill:#F2BD1D;}
	.st1{fill:#9134D8;}
</style>
<g>
	<path class="st0" d="M32,28.4c-2.2,0-4,1.8-4,4c0,2.2,1.8,4,4,4c2.2,0,4-1.8,4-4C36,30.2,34.2,28.4,32,28.4z"/>
	<path class="st1" d="M55,33.3c-0.5,13.1-12.1,23.4-25.6,21.9C18.8,54,10.3,45.5,9.2,35C7.6,21.1,18.5,9.4,32,9.4
		c4.7,0,9.2,1.4,13.1,4.1l-2.5,2.5c-0.5,0.5-0.7,1.3-0.6,2c0.2,0.7,0.7,1.3,1.4,1.5l8.3,2.8c0.3,0.1,0.7,0.2,1,0.2
		c1,0,1.9-0.4,2.5-1.2c0.7-0.9,0.8-2.1,0.5-3.2l-2.7-8.1c-0.2-0.7-0.8-1.2-1.5-1.4c-0.7-0.2-1.5,0-2,0.6l-3,3
		c-4.5-3.2-9.8-4.8-15.3-4.7C18.6,7.8,8.1,17.8,7.1,30.4C6,45.1,17.6,57.4,32,57.4c13.4,0,24.4-10.7,25-24c0-0.6-0.4-1-1-1h0
		C55.5,32.4,55,32.8,55,33.3z M51,10.4C51,10.4,51,10.4,51,10.4c0.1,0,0.1,0,0.1,0c0.1,0,0.1,0.1,0.1,0.1l2.8,8.3
		c0.2,0.5,0,0.9-0.3,1.3c-0.3,0.3-0.8,0.5-1.3,0.3l-8.3-2.8c0,0-0.1,0-0.1-0.1s0-0.1,0-0.1L51,10.4z"/>
	<path class="st1" d="M34.8,36.5l5.8,5.8c0.4,0.4,1,0.4,1.4,0h0c0.4-0.4,0.4-1,0-1.4l-5.8-5.8c0.5-0.8,0.8-1.7,0.8-2.8
		c0-2.4-1.7-4.4-4-4.9v-7.1c0-0.6-0.4-1-1-1h0c-0.6,0-1,0.4-1,1v7.1c-2.5,0.5-4.4,3-3.9,5.8c0.3,1.9,1.8,3.5,3.7,4
		C32.3,37.6,33.7,37.3,34.8,36.5z M29,32.4c0-1.7,1.3-3,3-3c1.7,0,3,1.3,3,3c0,1.7-1.3,3-3,3C30.4,35.4,29,34,29,32.4z"/>
	<path class="st1" d="M13,32.4h-2c0,11.6,9.4,21,21,21v-2C21.6,51.4,13,42.8,13,32.4z"/>
</g>
</svg>
