<?xml version="1.0" encoding="utf-8"?>
<!-- Generator: Adobe Illustrator 24.2.3, SVG Export Plug-In . SVG Version: 6.00 Build 0)  -->
<svg version="1.1" id="Layer_1" xmlns="http://www.w3.org/2000/svg" xmlns:xlink="http://www.w3.org/1999/xlink" x="0px" y="0px"
	 viewBox="0 0 64 64" style="enable-background:new 0 0 64 64;" xml:space="preserve">
<style type="text/css">
	.st0{fill:#9134D8;}
	.st1{fill:#F2BD1D;}
</style>
<g>
	<path class="st0" d="M31.5,58.3c-1.8,0-3.5-0.8-4.7-2.3c-1.7,0.9-3.6,1-5.3,0.3c-1.7-0.7-3-2.1-3.5-3.9c-1.9,0.2-3.7-0.4-5-1.7
		s-1.9-3.1-1.7-4.9c-1.8-0.5-3.2-1.8-3.9-3.5c-0.7-1.7-0.6-3.6,0.3-5.2c-1.5-1.2-2.3-2.9-2.3-4.7s0.8-3.5,2.3-4.7
		c-0.9-1.7-1-3.6-0.3-5.3c0.7-1.7,2.1-3,3.9-3.5c-0.2-1.9,0.4-3.7,1.7-5s3.1-1.9,4.9-1.7c0.5-1.8,1.8-3.2,3.5-3.9
		c1.7-0.7,3.6-0.6,5.2,0.3c1.2-1.5,2.9-2.3,4.7-2.3c1.8,0,3.5,0.8,4.7,2.3c1.7-0.9,3.6-1,5.3-0.3c1.7,0.7,3,2.1,3.5,3.9
		c1.9-0.2,3.7,0.4,5,1.7c1.3,1.3,1.9,3.1,1.7,4.9c1.8,0.5,3.2,1.8,3.9,3.5c0.7,1.7,0.6,3.6-0.3,5.2c1.5,1.2,2.3,2.9,2.3,4.7
		c0,1.8-0.8,3.5-2.3,4.7c0.9,1.7,1,3.6,0.3,5.3c-0.7,1.7-2.1,3-3.9,3.5c0.2,1.9-0.4,3.7-1.7,5c-1.3,1.3-3.1,1.9-4.9,1.7
		c-0.5,1.8-1.8,3.2-3.5,3.9s-3.6,0.6-5.2-0.3C35,57.4,33.3,58.3,31.5,58.3z M26.8,54c0.6,0,1.2,0.3,1.6,0.8c0.8,1,1.9,1.5,3.1,1.5
		c1.2,0,2.4-0.6,3.1-1.5c0.6-0.8,1.7-1,2.6-0.5c1.1,0.6,2.3,0.7,3.5,0.2c1.1-0.5,2-1.4,2.3-2.6c0.3-1,1.2-1.6,2.2-1.5
		c1.2,0.1,2.4-0.3,3.3-1.1c0.9-0.9,1.3-2.1,1.1-3.3c-0.1-1,0.5-1.9,1.5-2.2c1.2-0.3,2.1-1.2,2.6-2.3c0.5-1.1,0.4-2.4-0.2-3.5
		c-0.5-0.9-0.3-2,0.5-2.6c1-0.8,1.5-1.9,1.5-3.1s-0.6-2.4-1.5-3.1c-0.8-0.6-1-1.7-0.5-2.6c0.6-1.1,0.7-2.3,0.2-3.5
		c-0.5-1.1-1.4-2-2.6-2.3c-1-0.3-1.6-1.2-1.5-2.2c0.1-1.2-0.3-2.4-1.1-3.3c-0.9-0.9-2.1-1.3-3.3-1.1c-1,0.1-1.9-0.5-2.2-1.5
		c-0.3-1.2-1.2-2.1-2.3-2.6c-1.1-0.5-2.4-0.4-3.5,0.2c-0.9,0.5-2,0.3-2.6-0.5c-0.8-1-1.9-1.5-3.1-1.5s-2.4,0.6-3.1,1.5
		c-0.6,0.8-1.7,1-2.6,0.5c-1.1-0.6-2.3-0.7-3.5-0.2c-1.1,0.5-2,1.4-2.3,2.6c-0.3,1-1.2,1.6-2.2,1.5c-1.2-0.2-2.4,0.3-3.3,1.1
		c-0.9,0.9-1.3,2.1-1.1,3.3c0.1,1-0.5,1.9-1.5,2.2c-1.2,0.3-2.1,1.2-2.6,2.3c-0.5,1.1-0.4,2.4,0.2,3.5c0.5,0.9,0.3,2-0.5,2.6
		c-1,0.8-1.5,1.9-1.5,3.1c0,1.2,0.6,2.4,1.5,3.1c0.8,0.6,1,1.7,0.5,2.6c-0.6,1.1-0.7,2.3-0.2,3.5c0.5,1.1,1.4,2,2.6,2.3
		c1,0.3,1.6,1.2,1.5,2.2c-0.1,1.2,0.3,2.4,1.1,3.3s2.1,1.3,3.3,1.1c1-0.1,1.9,0.5,2.2,1.5c0.3,1.2,1.2,2.1,2.3,2.6
		c1.1,0.5,2.4,0.4,3.5-0.2C26.1,54.1,26.4,54,26.8,54z"/>
	<path class="st0" d="M23.5,30.3c-2.8,0-5-2.2-5-5s2.2-5,5-5s5,2.2,5,5S26.3,30.3,23.5,30.3z M23.5,22.3c-1.7,0-3,1.3-3,3s1.3,3,3,3
		s3-1.3,3-3S25.2,22.3,23.5,22.3z"/>
	<path class="st0" d="M21.8,46.4l-1.6-1.2l21-27l1.6,1.2L21.8,46.4z"/>
	<path class="st0" d="M39.5,44.3c-2.8,0-5-2.2-5-5s2.2-5,5-5s5,2.2,5,5S42.3,44.3,39.5,44.3z M39.5,36.3c-1.7,0-3,1.3-3,3s1.3,3,3,3
		s3-1.3,3-3S41.2,36.3,39.5,36.3z"/>
	<path class="st1" d="M39.5,36.3c-1.7,0-3,1.3-3,3s1.3,3,3,3s3-1.3,3-3S41.2,36.3,39.5,36.3z"/>
	<path class="st1" d="M23.5,22.3c-1.7,0-3,1.3-3,3s1.3,3,3,3s3-1.3,3-3S25.2,22.3,23.5,22.3z"/>
</g>
</svg>
