<?xml version="1.0" encoding="utf-8"?>
<!-- Generator: Adobe Illustrator 24.2.3, SVG Export Plug-In . SVG Version: 6.00 Build 0)  -->
<svg version="1.1" id="Layer_1" xmlns="http://www.w3.org/2000/svg" xmlns:xlink="http://www.w3.org/1999/xlink" x="0px" y="0px"
	 viewBox="0 0 64 64" style="enable-background:new 0 0 64 64;" xml:space="preserve">
<style type="text/css">
	.st0{fill:#F2BD1D;}
	.st1{fill:#9134D8;}
</style>
<g>
	<path class="st0" d="M31.4,34.2c-2.8,0-5,2.2-5,5s2.2,5,5,5s5-2.2,5-5C36.4,36.5,34.2,34.2,31.4,34.2z"/>
	<path class="st1" d="M52.5,8.2h-42c-1.7,0-3,1.3-3,3v31c0,1.7,1.3,3,3,3h14v9c0,0.7,0.4,1.4,1.1,1.8c0.3,0.2,0.6,0.2,0.9,0.2
		c0.4,0,0.8-0.1,1.1-0.3l3.9-2.6l3.9,2.6c0.6,0.4,1.4,0.4,2.1,0.1c0.7-0.3,1.1-1,1.1-1.8v-9h14c1.7,0,3-1.3,3-3v-31
		C55.5,9.6,54.2,8.2,52.5,8.2z M24.4,39.2c0-3.9,3.1-7,7-7s7,3.1,7,7s-3.1,7-7,7S24.4,43.1,24.4,39.2z M31.4,30.2c-5,0-9,4-9,9h-8.9
		v-25h36v25h-9.1C40.4,34.3,36.4,30.2,31.4,30.2z M32.6,51.6c-0.7-0.4-1.5-0.4-2.2,0l-3.9,2.6v-7.4c1.4,0.9,3.1,1.5,4.9,1.5
		c1.9,0,3.6-0.6,5.1-1.6v7.5L32.6,51.6z M53.5,42.2c0,0.6-0.4,1-1,1h-13c0.3-0.6,0.6-1.3,0.7-2h10.3c0.6,0,1-0.4,1-1v-27
		c0-0.6-0.4-1-1-1h-38c-0.6,0-1,0.4-1,1v27c0,0.6,0.4,1,1,1h10c0,0,0.1,0,0.1,0c0.2,0.7,0.4,1.4,0.7,2H10.5c-0.6,0-1-0.4-1-1v-31
		c0-0.6,0.4-1,1-1h42c0.6,0,1,0.4,1,1V42.2z"/>
	<rect x="23.5" y="17.2" class="st1" width="16" height="2"/>
	<rect x="20.5" y="21.2" class="st1" width="22" height="2"/>
	<rect x="17.5" y="25.2" class="st1" width="28" height="2"/>
</g>
</svg>
