<?xml version="1.0" encoding="utf-8"?>
<!-- Generator: Adobe Illustrator 24.2.3, SVG Export Plug-In . SVG Version: 6.00 Build 0)  -->
<svg version="1.1" id="Layer_1" xmlns="http://www.w3.org/2000/svg" xmlns:xlink="http://www.w3.org/1999/xlink" x="0px" y="0px"
	 viewBox="0 0 64 64" style="enable-background:new 0 0 64 64;" xml:space="preserve">
<style type="text/css">
	.st0{fill:#F2BD1D;}
	.st1{fill:#E4E4E4;}
	.st2{fill:#9134D8;}
</style>
<g>
	<path class="st0" d="M43.5,41.3c-2.7,0-5-2.2-5-5v-2h-10l-5-1v-7l4.5-1.7l0.5-4.3l7.4-1.6l-0.4-6.4h-7l-7,2l-6,4l-4,10l7.4,0.2
		l0.3,3.8l3.9,5h5.4v4c1.7,0,3,1.3,3,3V53l8.6-1.6l5.4-4.2v-6H43.5z"/>
	<path class="st1" d="M31.5,58.3c-14.3,0-26-11.7-26-26s11.7-26,26-26s26,11.7,26,26S45.8,58.3,31.5,58.3z M31.5,8.3
		c-13.2,0-24,10.8-24,24s10.8,24,24,24s24-10.8,24-24S44.7,8.3,31.5,8.3z"/>
	<path class="st2" d="M31.5,6.3c-14.3,0-26,11.7-26,26s11.7,26,26,26s26-11.7,26-26S45.8,6.3,31.5,6.3z M31.5,56.3
		c-13.2,0-24-10.8-24-24s10.8-24,24-24s24,10.8,24,24S44.7,56.3,31.5,56.3z"/>
	<path class="st2" d="M31.5,10.3c-12.1,0-22,9.9-22,22s9.9,22,22,22s22-9.9,22-22S43.6,10.3,31.5,10.3z M31.5,12.3
		c1.4,0,2.7,0.1,4,0.4c0,0,0,0.1,0,0.1v4.5c0,0.6-0.4,1-1,1h-4c-1.7,0-3,1.3-3,3v2c0,0.6-0.4,1-1,1h-1c-1.7,0-3,1.3-3,3v4
		c0,1.7,1.3,3,3,3h12c0.6,0,1,0.4,1,1v3c0,1.7,1.3,3,3,3h2c0.6,0,1,0.4,1,1v5.2c-3.3,2.8-7.4,4.6-12,4.8v-8c0-1.7-1.3-3-3-3
		c-0.6,0-1-0.4-1-1v-3c0-0.6-0.4-1-1-1h-3c-2.2,0-4-1.8-4-4v-2c0-1.7-1.3-3-3-3h-5.3C14.4,18.7,22.2,12.3,31.5,12.3z M11.5,32.3
		c0-1,0.1-2,0.3-3h5.8c0.6,0,1,0.4,1,1v2c0,3.3,2.7,6,6,6h2v2c0,1.7,1.3,3,3,3c0.6,0,1,0.4,1,1v7.9C19.9,51.7,11.5,43,11.5,32.3z
		 M46.5,45.5v-3.2c0-1.7-1.3-3-3-3h-2c-0.6,0-1-0.4-1-1v-3c0-1.7-1.3-3-3-3h-12c-0.6,0-1-0.4-1-1v-4c0-0.6,0.4-1,1-1h1
		c1.7,0,3-1.3,3-3v-2c0-0.6,0.4-1,1-1h4c1.7,0,3-1.3,3-3v-4.1c8.1,2.6,14,10.1,14,19.1C51.5,37.3,49.6,41.9,46.5,45.5z"/>
</g>
</svg>
